# xmcd
#
# Track frame offsets:
#	183
#	8483
#	20883
#	34178
#	44838
#	115365
#	125378
#	133560
#	143673
#	160808
#	174205
#	189505
#	199923
#	215183
#	226455
#	240200
#	254070
#
# Disc length: 3543 seconds
#
# Revision: 1
# Processed by: cddbd v1.4PL0 Copyright (c) Steve Scherf et al.
# Submitted via: audiograbber 1.81.03
#
DISCID=f30dd511
DTITLE=Various Artist - Boss Men Of Blues
DYEAR=1994
DGENRE=Blues
TTITLE0=Homesick James - The Woman I Love
TTITLE1=Big Joe Williams - Blues On Decoration Day
TTITLE2=Earl Hooker - Blues For Dancers
TTITLE3=Rosevelt Sykes - I'm Gonna Get Even With You
TTITLE4=Jimmy Reed - Big Leg Woman
TTITLE5=Roosevelt Sykes - Bad News
TTITLE6=Big Joe Williams - My Troubles
TTITLE7=Big Joe Williams - What You Gaonna Do For Me
TTITLE8=Jimmy Reed - Cry Before I Go
TTITLE9=Jimmy Reed - Hard Walking Hanna
TTITLE10=Homesick James - Lonesome Road
TTITLE11=Roosevelt Sykes - Hey Woman
TTITLE12=Jimmy Reed - Down At The Corner Grocery Store
TTITLE13=Roosevelt Sykes - Birds Nest On The Ground
TTITLE14=Lightnin' Hopkins - Louisiana Woman
TTITLE15=Lightnin' Hopkins - War Is Starting
TTITLE16=Jimmy Reed - Xmas Present Blues
EXTD=
EXTT0=
EXTT1=
EXTT2=
EXTT3=
EXTT4=
EXTT5=
EXTT6=
EXTT7=
EXTT8=
EXTT9=
EXTT10=
EXTT11=
EXTT12=
EXTT13=
EXTT14=
EXTT15=
EXTT16=
PLAYORDER=
